<?xml version="1.0" encoding="utf-8"?>
<!-- Generator: Adobe Illustrator 22.1.0, SVG Export Plug-In . SVG Version: 6.00 Build 0)  -->
<svg version="1.1" id="Layer_1" xmlns="http://www.w3.org/2000/svg" xmlns:xlink="http://www.w3.org/1999/xlink" x="0px" y="0px"
	 viewBox="0 0 100 100" style="enable-background:new 0 0 100 100;" xml:space="preserve">
<style type="text/css">
	.st0{fill:#FFFFFF;}
	.st1{font-family:'Marion-Bold';}
	.st2{font-size:30.3769px;}
	.st3{fill:none;stroke:#CCCCCC;stroke-width:4;stroke-linecap:round;stroke-miterlimit:10;}
	.st4{fill:none;stroke:#CCCCCC;stroke-width:4;stroke-linecap:round;stroke-miterlimit:10;stroke-dasharray:1.035943e-02,5.1797;}
	.st5{stroke:#000000;stroke-width:6;stroke-miterlimit:10;}
</style>
<path d="M46.3,1.8c0,0-7.7,20.7-38.6,19.3V50c0,26.5,38.6,48.2,38.6,48.2S84.9,76.5,84.9,50V21C54,22.5,46.3,1.8,46.3,1.8z M75.2,50
	c0,14-14,30.4-28.9,37.6C29.9,79.4,17.4,63.5,17.4,50V30.7c17.8-1.4,21.2-9.6,28.9-15.4C54,21,57.4,28.7,75.2,30.7V50z"/>
<rect x="4.5" y="41.3" class="st0" width="86.5" height="29.4"/>
<text transform="matrix(1 0 0 1 18.3647 65.4248)" class="st1 st2">TLS</text>
<g>
	<g>
		<line class="st3" x1="13.4" y1="43.3" x2="13.4" y2="43.3"/>
		<polyline class="st4" points="13.8,48.5 14.1,52 15.7,58.5 19.4,68.8 20.5,70.7 		"/>
		<line class="st3" x1="21.8" y1="73" x2="21.8" y2="73"/>
	</g>
</g>
<g>
	<g>
		<line class="st3" x1="80" y1="43.4" x2="80" y2="43.4"/>
		<polyline class="st4" points="79.5,48.6 79.2,52 77.7,58.6 74,68.8 72.9,70.8 		"/>
		<line class="st3" x1="71.6" y1="73.1" x2="71.6" y2="73.1"/>
	</g>
</g>
<line class="st5" x1="4.5" y1="39.1" x2="88.2" y2="39.1"/>
<line class="st5" x1="14.7" y1="72.1" x2="78" y2="72.1"/>
</svg>
