<?xml version="1.0" encoding="utf-8"?>
<!-- Generator: Adobe Illustrator 22.1.0, SVG Export Plug-In . SVG Version: 6.00 Build 0)  -->
<svg version="1.1" id="Layer_1" xmlns="http://www.w3.org/2000/svg" xmlns:xlink="http://www.w3.org/1999/xlink" x="0px" y="0px"
	 viewBox="0 0 24 30" style="enable-background:new 0 0 24 30;" xml:space="preserve">
<g>
	<path d="M12,2c0,0-1.6,4.3-8,4v6c0,5.5,8,10,8,10s8-4.5,8-10V6C13.6,6.3,12,2,12,2z M18,12c0,2.9-2.9,6.3-6,7.8c-3.4-1.7-6-5-6-7.8
		V8c3.7-0.3,4.4-2,6-3.2C13.6,6,14.3,7.6,18,8V12z"/>
	<polygon points="9.7,11.3 8.3,12.7 11,15.4 15.7,10.7 14.3,9.3 11,12.6 	"/>
</g>
</svg>
